<svg width="532" height="851" viewBox="0 0 532 851" fill="none" xmlns="http://www.w3.org/2000/svg">
<g clip-path="url(#clip0_66_684)">
<path d="M381.391 850.356C464.57 850.356 532 840.086 532 827.418C532 814.75 464.57 804.481 381.391 804.481C298.211 804.481 230.781 814.75 230.781 827.418C230.781 840.086 298.211 850.356 381.391 850.356Z" fill="white"/>
<path opacity="0.1" d="M381.391 850.356C464.57 850.356 532 840.086 532 827.418C532 814.75 464.57 804.481 381.391 804.481C298.211 804.481 230.781 814.75 230.781 827.418C230.781 840.086 298.211 850.356 381.391 850.356Z" fill="#292A2E"/>
<path d="M131.373 486.322H83.3652V509.377H131.373V486.322Z" fill="#F4F4F4"/>
<path opacity="0.05" d="M96.1028 486.322H89.8125V509.377H96.1028V486.322Z" fill="#292A2E"/>
<path d="M125.238 491.333H99.082V504.995H125.238V491.333Z" fill="white"/>
<path d="M169.665 489.33L125.058 457.174L119.467 478.302L164.074 510.458L169.665 489.33Z" fill="#F4F4F4"/>
<path opacity="0.05" d="M169.665 489.33L125.058 457.174L119.467 478.302L164.074 510.458L169.665 489.33Z" fill="#292A2E"/>
<path d="M163.675 485.012L157.83 480.798L152.239 501.926L158.084 506.139L163.675 485.012Z" fill="white"/>
<path d="M153.845 483.395L129.542 465.875L126.229 478.395L150.532 495.914L153.845 483.395Z" fill="white"/>
<path opacity="0.05" d="M169.748 778.379H157.684V791.677H169.748V778.379Z" fill="#292A2E"/>
<path opacity="0.05" d="M46.4032 778.379H34.3389V791.677H46.4032V778.379Z" fill="#292A2E"/>
<path d="M180.807 510.458H23.2803V777.929H180.807V510.458Z" fill="#F4F4F4"/>
<path opacity="0.03" d="M180.807 510.458H23.2803V777.929H180.807V510.458Z" fill="#292A2E"/>
<path d="M209.999 510.458H52.4727V777.929H209.999V510.458Z" fill="#F4F4F4"/>
<path opacity="0.05" d="M198.94 778.379H186.876V791.677H198.94V778.379Z" fill="#292A2E"/>
<path opacity="0.05" d="M75.5955 778.379H63.5312V791.677H75.5955V778.379Z" fill="#292A2E"/>
<path opacity="0.7" d="M204.086 522.986H58.3857V574.373H204.086V522.986Z" fill="white"/>
<path opacity="0.7" d="M204.086 586.95H58.3857V638.336H204.086V586.95Z" fill="white"/>
<path opacity="0.7" d="M204.086 650.913H58.3857V702.3H204.086V650.913Z" fill="white"/>
<path opacity="0.05" d="M131.236 555.869C133.642 555.869 135.593 552.65 135.593 548.679C135.593 544.708 133.642 541.489 131.236 541.489C128.83 541.489 126.88 544.708 126.88 548.679C126.88 552.65 128.83 555.869 131.236 555.869Z" fill="#292A2E"/>
<path opacity="0.05" d="M131.236 619.833C133.642 619.833 135.593 616.614 135.593 612.643C135.593 608.672 133.642 605.453 131.236 605.453C128.83 605.453 126.88 608.672 126.88 612.643C126.88 616.614 128.83 619.833 131.236 619.833Z" fill="#292A2E"/>
<path opacity="0.05" d="M131.236 683.798C133.642 683.798 135.593 680.579 135.593 676.608C135.593 672.637 133.642 669.418 131.236 669.418C128.83 669.418 126.88 672.637 126.88 676.608C126.88 680.579 128.83 683.798 131.236 683.798Z" fill="#292A2E"/>
<path opacity="0.7" d="M204.086 716.319H58.3857V767.706H204.086V716.319Z" fill="white"/>
<path opacity="0.05" d="M131.236 749.203C133.642 749.203 135.593 745.984 135.593 742.013C135.593 738.042 133.642 734.823 131.236 734.823C128.83 734.823 126.88 738.042 126.88 742.013C126.88 745.984 128.83 749.203 131.236 749.203Z" fill="#292A2E"/>
<path d="M79.2001 244.982L172.347 244.982L172.347 44.8744L79.2001 44.8744L79.2001 244.982Z" fill="#F4F4F4"/>
<path d="M79.2005 44.8744H76.1787V244.982H79.2005V44.8744Z" fill="#F4F4F4"/>
<path opacity="0.05" d="M79.2005 44.8744H76.1787V244.982H79.2005V44.8744Z" fill="#292A2E"/>
<path opacity="0.05" d="M96.1684 208.529H155.379V81.3257L96.1684 81.3257V208.529Z" fill="#292A2E"/>
<path opacity="0.03" d="M96.1682 208.529H99.2539L99.2539 81.3257H96.1682L96.1682 208.529Z" fill="#292A2E"/>
<path d="M3.02069 421.077H79.1992L79.1992 294.19H3.02069L3.02069 421.077Z" fill="#F4F4F4"/>
<path opacity="0.05" d="M16.8977 397.963H65.3223V317.305H16.8977L16.8977 397.963Z" fill="#292A2E"/>
<path d="M3.02175 294.191H0V421.078H3.02175V294.191Z" fill="#F4F4F4"/>
<path opacity="0.05" d="M3.02175 294.191H0V421.078H3.02175V294.191Z" fill="#292A2E"/>
<path opacity="0.03" d="M16.8977 397.963H19.9834L19.9834 317.305H16.8977L16.8977 397.963Z" fill="#292A2E"/>
<path d="M467.548 44.3981H273.166V365.223H467.548V44.3981Z" fill="#F4F4F4"/>
<path d="M273.166 44.3981H270.938V365.223H273.166V44.3981Z" fill="#F4F4F4"/>
<path opacity="0.05" d="M273.166 44.3981H270.938V365.223H273.166V44.3981Z" fill="#292A2E"/>
<path opacity="0.05" d="M320.255 265.473V181.534H361.914V230.301H426.444V316.647H453.87V365.223H426.444H421.161H282.516V265.473H320.255Z" fill="#292A2E"/>
<path opacity="0.34" d="M356.567 190.647H326.23V199.761H356.567V190.647Z" fill="#FFFFFA"/>
<path opacity="0.34" d="M356.567 209.533H326.23V218.647H356.567V209.533Z" fill="#FFFFFA"/>
<path opacity="0.34" d="M356.567 228.42H326.23V237.533H356.567V228.42Z" fill="#FFFFFA"/>
<path opacity="0.34" d="M293.487 274.319H287.896V283.432H293.487V274.319Z" fill="#FFFFFA"/>
<path opacity="0.34" d="M293.487 293.205H287.896V302.319H293.487V293.205Z" fill="#FFFFFA"/>
<path opacity="0.34" d="M293.487 312.09H287.896V321.204H293.487V312.09Z" fill="#FFFFFA"/>
<path opacity="0.34" d="M303.831 274.319H298.239V283.432H303.831V274.319Z" fill="#FFFFFA"/>
<path opacity="0.34" d="M303.831 293.205H298.239V302.319H303.831V293.205Z" fill="#FFFFFA"/>
<path opacity="0.34" d="M303.831 312.09H298.239V321.204H303.831V312.09Z" fill="#FFFFFA"/>
<path opacity="0.34" d="M313.896 274.319H308.305V283.432H313.896V274.319Z" fill="#FFFFFA"/>
<path opacity="0.34" d="M313.896 293.205H308.305V302.319H313.896V293.205Z" fill="#FFFFFA"/>
<path opacity="0.34" d="M313.896 312.09H308.305V321.204H313.896V312.09Z" fill="#FFFFFA"/>
<path d="M273.166 203.01H312.278V44.397H315.514V203.01H421.161V44.397H424.396V203.01H467.548V208.349H424.396V365.223H421.161V208.349H315.514V365.223H312.278V208.349H273.166V203.01Z" fill="white"/>
<path d="M475.291 364.835H265.422V375.504H475.291V364.835Z" fill="#F4F4F4"/>
<path opacity="0.1" d="M475.291 364.835H265.422V375.504H475.291V364.835Z" fill="#292A2E"/>
<path opacity="0.1" d="M265.422 364.835H262.392V375.504H265.422V364.835Z" fill="#292A2E"/>
<path opacity="0.1" d="M265.422 364.835H262.392V375.504H265.422V364.835Z" fill="#292A2E"/>
<path d="M434.214 419.797C404.455 419.797 380.331 433.196 380.331 449.726V485.357H488.098V449.726C488.098 433.196 463.973 419.797 434.214 419.797Z" fill="#367CFF"/>
<path opacity="0.49" d="M434.214 419.797C404.455 419.797 380.331 433.196 380.331 449.726V485.357H488.098V449.726C488.098 433.196 463.973 419.797 434.214 419.797Z" fill="white"/>
<path opacity="0.49" d="M473.419 449.73V485.355H380.33V449.73C380.33 434.579 400.591 422.061 426.874 420.082C453.161 422.061 473.419 434.579 473.419 449.73Z" fill="white"/>
<path d="M488.098 831.566H489.906L488.098 482.196L486.305 485.181L487.583 729.226L423.746 731.016L422.458 485.155L420.665 485.181L421.953 731.066L383.417 732.147L382.123 485.155L380.33 482.222L382.139 831.566L383.916 831.542L383.432 735.108L421.968 734.027L422.458 831.566L424.251 831.542L423.761 733.976L487.599 732.185L488.098 831.566Z" fill="#292A2E"/>
<path d="M325.568 779.26C325.568 779.26 322.363 806.676 306.81 808.204C291.257 809.732 294.63 830.181 294.63 830.181H354.064V781.172L325.568 779.26Z" fill="#367CFF"/>
<path d="M359.477 696.799C359.477 696.799 363.934 723.734 350.387 736.436C336.841 749.139 345.336 765.031 345.336 765.031L398.665 721.727L385.558 677.751L359.477 696.799Z" fill="#367CFF"/>
<path d="M353.835 714.601L313.651 464.356C310.603 436.71 315.191 424.727 322.262 413.086C334.685 392.635 386.162 349.106 386.162 349.106L447.918 348.828C464.294 348.828 480.39 375.478 480.39 402.504C480.39 429.53 463.744 452.45 447.368 452.45L371.321 464.978L391.936 694.111L353.835 714.601Z" fill="#262626"/>
<path d="M391.935 694.109L383.819 603.902L342.705 645.297L353.834 714.601L391.935 694.109Z" fill="#0C0C0C"/>
<path d="M401.254 399.746C401.254 399.746 375.293 409.294 349.582 451.73C333.994 477.459 335.272 524.02 337.611 613.57L363.147 551.317L391.155 467.942L401.254 399.746Z" fill="#0C0C0C"/>
<path d="M491.141 348.8L449.201 348.474L449.185 349.385H436.486C436.486 349.385 404.673 397.696 379.064 428.14C360.435 450.283 349.07 471.395 348.087 494.404C345.69 550.493 318.653 789.706 318.653 789.706L359.343 799.875L395.051 513.998C395.051 513.998 450.884 471.511 463.799 456.73C475.96 442.808 484.55 437.426 488.575 422.233C495.525 395.994 491.141 348.8 491.141 348.8Z" fill="#262626"/>
<path d="M444.089 366.235L376.052 367.723L414.217 405.345L445.975 378.278C446.74 377.6 447.345 376.518 447.693 375.205C448.041 373.891 448.112 372.423 447.895 371.035C447.678 369.648 447.185 368.42 446.495 367.55C445.805 366.679 444.957 366.216 444.089 366.235Z" fill="#292A2E"/>
<path opacity="0.2" d="M444.089 366.235L376.052 367.723L414.217 405.345L445.975 378.278C446.74 377.6 447.345 376.518 447.693 375.205C448.041 373.891 448.112 372.423 447.895 371.035C447.678 369.648 447.185 368.42 446.495 367.55C445.805 366.679 444.957 366.216 444.089 366.235Z" fill="white"/>
<path d="M376.441 164.777L357.196 267.692L318.65 350.988L341.167 393.649L387.025 309.172C389.137 306.417 390.79 302.818 391.827 298.716L392.541 295.862L419.029 190.084L376.441 164.777Z" fill="#367CFF"/>
<path d="M406.087 55.5357C406.087 55.5357 398.332 45.8688 396.411 23.6348C394.923 6.41868 404.545 17.5722 404.545 17.5722C404.545 17.5722 403.547 5.15803 409.028 6.39007C414.508 7.62212 417.574 20.6627 417.574 20.6627" fill="#0C0C0C"/>
<path d="M437.351 7.84314C437.351 7.84314 464.54 12.6539 454.711 73.4651L452.306 73.7314L447.422 74.272" fill="#0C0C0C"/>
<path d="M410.641 136.973C410.76 136.947 412.087 173.273 437.655 170.11C455.358 167.921 461.67 136.922 462.075 136.922C460.167 136.252 457.808 135.236 456.871 134.888C454.827 134.105 452.977 132.315 451.566 129.754C450.154 127.193 449.249 123.984 448.97 120.553C448.452 115.404 449.328 89.0584 449.06 83.8481L421.889 93.8584C422.269 104.863 424.926 130.373 415.614 134.888C414.063 135.633 412.393 136.324 410.641 136.973Z" fill="#E98862"/>
<path opacity="0.52" d="M421.509 124.462C421.934 122.198 422.209 119.864 422.326 117.501C422.625 112.11 422.565 106.681 422.147 101.311C427.67 100.082 432.874 96.3214 437.167 90.4552C437.672 93.5309 440.447 106.97 439.677 109.888C438.226 115.412 431.401 124.462 421.509 124.462Z" fill="#0C0C0C"/>
<path d="M427.117 117.272C437.837 115.685 450.668 104.506 450.853 80.4874L451.02 58.8156C451.205 34.7981 443.712 15.1673 430.011 14.8793C416.309 14.5922 405.918 33.8472 405.733 57.8657L405.659 67.4597C405.668 70.7547 405.814 74.0448 406.094 77.3072C406.797 85.9384 407.887 99.0608 411.436 107.938C414.787 116.318 420.268 118.285 427.117 117.272Z" fill="#E98862"/>
<path opacity="0.52" d="M422.144 95.3183C419.931 95.4837 417.726 94.7887 415.706 93.2892C415.624 93.2277 415.559 93.1153 415.527 92.9762C415.494 92.837 415.495 92.6822 415.531 92.5448C415.566 92.4074 415.633 92.2984 415.716 92.2412C415.8 92.184 415.894 92.1831 415.978 92.2387C420.329 95.3015 424.28 94.8537 427.404 90.9425C427.467 90.8603 427.532 90.7835 427.6 90.7127C427.678 90.6517 427.768 90.6416 427.851 90.6846C427.934 90.7275 428.004 90.8202 428.047 90.9444C428.09 91.0686 428.104 91.2151 428.085 91.3549C428.066 91.4947 428.015 91.6175 427.944 91.6991C427.919 91.7247 427.878 91.777 427.825 91.848C426.183 93.9125 424.204 95.1209 422.144 95.3183Z" fill="#0C0C0C"/>
<path opacity="0.52" d="M422.244 100.729C421.845 100.77 421.444 100.754 421.045 100.682C421 100.674 420.957 100.651 420.917 100.615C420.877 100.58 420.842 100.531 420.813 100.473C420.785 100.415 420.763 100.348 420.75 100.276C420.738 100.204 420.733 100.129 420.738 100.054C420.743 99.9797 420.757 99.9075 420.778 99.8417C420.8 99.7759 420.829 99.7178 420.865 99.6707C420.9 99.6237 420.941 99.5885 420.984 99.5673C421.028 99.5461 421.073 99.5393 421.118 99.5472C423.513 99.9664 424.656 98.1563 424.704 98.0784C424.769 97.9712 424.857 97.911 424.949 97.9108C425.04 97.9106 425.128 97.9705 425.193 98.0774C425.258 98.1843 425.295 98.3293 425.295 98.4806C425.295 98.632 425.259 98.7772 425.194 98.8843C424.369 100.043 423.327 100.695 422.244 100.729Z" fill="#0C0C0C"/>
<path d="M410.258 72.0782C411.19 72.0782 411.946 70.831 411.946 69.2925C411.946 67.754 411.19 66.5068 410.258 66.5068C409.326 66.5068 408.57 67.754 408.57 69.2925C408.57 70.831 409.326 72.0782 410.258 72.0782Z" fill="#0C0C0C"/>
<path d="M426.746 70.3706C427.679 70.3706 428.434 69.1235 428.434 67.585C428.434 66.0465 427.679 64.7993 426.746 64.7993C425.814 64.7993 425.059 66.0465 425.059 67.585C425.059 69.1235 425.814 70.3706 426.746 70.3706Z" fill="#0C0C0C"/>
<path d="M449.946 87.7919C454.11 87.8797 457.542 80.5979 457.596 73.7255C457.65 66.8531 454.302 62.9922 450.138 62.9054L447.958 67.4646L446.367 87.7169L449.946 87.7919Z" fill="#E98862"/>
<path d="M445.804 76.7439C445.804 76.7439 444.398 42.7586 438.154 40.6595C433.995 39.2617 423.911 48.9978 414.57 46.0572C410.484 44.7749 406.604 46.44 406.21 49.6261C406.053 50.8877 403.508 32.7582 409.907 19.0035C415.002 8.05421 431.675 4.95683 439.26 8.54742C460.264 18.4926 450.996 64.3959 450.996 64.3959L450.059 76.1126L445.804 76.7439Z" fill="#0C0C0C"/>
<g opacity="0.52">
<path d="M419.626 87.2986C419.618 87.2996 419.609 87.2996 419.6 87.2986C418.258 87.2769 416.009 86.9919 416.018 85.3357C416.027 83.9626 418.394 69.1829 418.664 67.5021C418.687 67.3574 418.744 67.2339 418.823 67.1587C418.901 67.0835 418.994 67.0628 419.082 67.1011C419.17 67.1394 419.245 67.2337 419.29 67.3631C419.336 67.4925 419.348 67.6464 419.325 67.7911C418.273 74.337 416.707 84.4143 416.701 85.3495C416.831 85.744 418.217 86.1504 419.606 86.1741C419.694 86.1772 419.777 86.2357 419.839 86.3376C419.902 86.4394 419.938 86.5768 419.94 86.7214C419.943 86.866 419.912 87.0067 419.853 87.1145C419.795 87.2223 419.714 87.2889 419.626 87.3006V87.2986Z" fill="#0C0C0C"/>
</g>
<path d="M415.049 54.1884C413.639 53.5477 412.15 53.5477 410.739 54.1884C410.047 54.4958 409.386 54.9733 408.78 55.6049C408.18 56.2233 407.629 56.9643 407.142 57.8105C407.052 57.9612 407.001 58.1633 406.999 58.3748C406.997 58.5862 407.045 58.7907 407.132 58.9457C407.219 59.1007 407.339 59.1943 407.467 59.207C407.595 59.2197 407.721 59.1506 407.819 59.0139L407.849 58.9705C408.3 58.2808 408.802 57.6879 409.343 57.2058C409.874 56.726 410.446 56.3814 411.039 56.1839C412.206 55.7798 413.418 55.8918 414.551 56.5084L414.598 56.536C414.784 56.6347 414.985 56.6101 415.16 56.4674C415.335 56.3248 415.469 56.0753 415.533 55.7721C415.598 55.4689 415.589 55.1358 415.508 54.8438C415.426 54.5517 415.279 54.3236 415.097 54.2081L415.049 54.1884Z" fill="#0C0C0C"/>
<path d="M425.034 55.5861C426.107 54.7256 427.299 54.3482 428.489 54.4922C429.093 54.5569 429.687 54.7724 430.252 55.1314C430.826 55.491 431.371 55.9682 431.873 56.5518L431.905 56.5873C432.013 56.7021 432.144 56.7436 432.27 56.7033C432.396 56.663 432.507 56.544 432.582 56.371C432.656 56.1981 432.686 55.9846 432.667 55.7752C432.648 55.5657 432.581 55.3764 432.48 55.2468C431.929 54.5154 431.323 53.9019 430.679 53.4209C430.027 52.9285 429.333 52.6007 428.622 52.4483C427.173 52.1223 425.697 52.4485 424.351 53.3923C424.261 53.4571 424.179 53.5506 424.111 53.6674C424.042 53.7843 423.989 53.9222 423.953 54.0733C423.916 54.2245 423.899 54.3858 423.901 54.5483C423.902 54.7107 423.923 54.8709 423.963 55.0199C424.042 55.3208 424.19 55.5573 424.375 55.6776C424.467 55.7371 424.564 55.7663 424.663 55.7635C424.761 55.7607 424.858 55.7259 424.949 55.6611L424.991 55.6285L425.034 55.5861Z" fill="#0C0C0C"/>
<path d="M424.35 19.1584C425.298 11.6713 423.567 4.74012 420.485 3.67732C417.403 2.61452 414.137 7.82252 413.189 15.3097C412.241 22.7968 413.971 29.7279 417.053 30.7907C420.135 31.8535 423.402 26.6456 424.35 19.1584Z" fill="#0C0C0C"/>
<path d="M378.87 216.816C379.675 232.433 385.384 329.87 386.161 349.108H491.094C491.697 331.757 494.404 255.891 496.691 221.958C498.873 189.581 501.932 174.848 499.418 164.787C494.985 147.042 480.873 139.118 471.317 136.982C465.481 135.678 456.705 134.744 456.705 134.744C456.705 134.744 455.962 159.555 438.243 160.936C414.121 162.811 415.733 134.744 415.613 134.744C411.705 134.744 390.435 139.434 385.116 145.155C377.604 153.236 375.383 164.25 375.296 174.367C375.195 186.02 377.958 199.101 378.87 216.816Z" fill="#367CFF"/>
<path d="M384.191 310.71C384.116 310.711 384.043 310.665 383.988 310.581C383.933 310.498 383.898 310.383 383.892 310.26L379.916 235.213C379.909 235.083 379.934 234.953 379.985 234.853C380.036 234.753 380.109 234.69 380.188 234.678C380.227 234.672 380.266 234.678 380.304 234.697C380.342 234.716 380.377 234.748 380.407 234.79C380.437 234.832 380.462 234.883 380.48 234.941C380.498 234.999 380.509 235.062 380.511 235.127L384.487 310.174C384.494 310.305 384.469 310.434 384.418 310.534C384.367 310.634 384.295 310.697 384.216 310.708C384.207 310.71 384.199 310.71 384.191 310.71Z" fill="#0C0C0C"/>
<path d="M391.8 354.302L406.208 335.009L403.784 336.14C402.996 336.479 402.161 336.313 401.445 335.674C400.73 335.035 400.188 333.972 399.929 332.699C399.809 332.035 399.773 331.337 399.822 330.648C399.871 329.96 400.004 329.295 400.214 328.694C400.424 328.094 400.706 327.57 401.042 327.155C401.379 326.74 401.763 326.443 402.172 326.281L432.441 314.13L435.045 330.043C435.854 334.985 435.751 340.213 434.748 345.058C433.745 349.902 431.889 354.142 429.416 357.234L418.201 371.204C417.627 371.947 416.915 372.341 416.185 372.318C415.455 372.295 414.753 371.856 414.197 371.077C413.702 370.355 413.361 369.391 413.223 368.327C413.085 367.262 413.156 366.152 413.427 365.159C413.379 365.135 413.335 365.09 413.301 365.029C413.27 364.969 413.25 364.898 413.24 364.821C413.231 364.745 413.233 364.666 413.246 364.592L411.18 367.174C410.542 368.006 409.736 368.407 408.925 368.296C408.114 368.185 407.359 367.57 406.813 366.575C406.344 365.658 406.085 364.497 406.083 363.297C406.081 362.096 406.335 360.933 406.802 360.012C406.769 360.003 406.738 359.986 406.709 359.959L405.86 361.021C405.286 361.764 404.574 362.158 403.845 362.135C403.115 362.112 402.413 361.674 401.856 360.894C401.257 360.019 400.887 358.794 400.823 357.478C400.759 356.161 401.006 354.855 401.513 353.833C401.501 353.804 401.491 353.773 401.483 353.741L395.483 361.775C395.185 362.174 394.843 362.471 394.476 362.651C394.109 362.831 393.724 362.89 393.343 362.825C392.962 362.759 392.592 362.571 392.256 362.269C391.919 361.968 391.621 361.56 391.38 361.07C391.139 360.579 390.958 360.014 390.849 359.408C390.74 358.802 390.705 358.166 390.744 357.538C390.784 356.909 390.898 356.299 391.081 355.743C391.263 355.188 391.51 354.696 391.808 354.298L391.8 354.302Z" fill="#E98862"/>
<path opacity="0.2" d="M401.842 354.028C401.873 354.009 401.903 353.982 401.929 353.946L407.702 346.03C407.732 345.99 407.756 345.94 407.774 345.885C407.791 345.829 407.802 345.768 407.806 345.705C407.809 345.642 407.805 345.579 407.794 345.519C407.782 345.459 407.764 345.403 407.74 345.355C407.715 345.306 407.685 345.266 407.652 345.237C407.618 345.208 407.581 345.19 407.543 345.184C407.505 345.178 407.467 345.185 407.43 345.204C407.394 345.222 407.36 345.253 407.331 345.293L401.558 353.208C401.505 353.28 401.47 353.381 401.458 353.491C401.446 353.602 401.458 353.717 401.491 353.815C401.525 353.912 401.579 353.987 401.643 354.026C401.707 354.065 401.777 354.066 401.842 354.028Z" fill="#0A0A0A"/>
<path opacity="0.2" d="M406.929 360.007C406.96 359.988 406.989 359.961 407.015 359.927L411.581 353.764C411.641 353.683 411.679 353.567 411.687 353.44C411.694 353.314 411.671 353.187 411.623 353.089C411.574 352.99 411.503 352.928 411.427 352.915C411.35 352.902 411.274 352.94 411.214 353.021L406.647 359.184C406.594 359.256 406.558 359.356 406.545 359.467C406.532 359.578 406.544 359.693 406.578 359.792C406.612 359.891 406.665 359.966 406.73 360.005C406.794 360.045 406.865 360.045 406.929 360.007Z" fill="#0A0A0A"/>
<path opacity="0.2" d="M413.614 365.175C413.648 365.154 413.678 365.125 413.706 365.087L415.821 362.093C415.85 362.052 415.873 362.002 415.891 361.946C415.908 361.89 415.918 361.829 415.921 361.766C415.924 361.703 415.919 361.64 415.908 361.581C415.896 361.521 415.877 361.465 415.852 361.418C415.827 361.37 415.797 361.331 415.763 361.302C415.729 361.274 415.692 361.257 415.654 361.252C415.616 361.247 415.578 361.255 415.542 361.274C415.505 361.294 415.472 361.325 415.443 361.366L413.327 364.36C413.276 364.433 413.242 364.533 413.231 364.643C413.219 364.754 413.232 364.867 413.266 364.964C413.3 365.06 413.353 365.134 413.417 365.173C413.481 365.211 413.55 365.212 413.614 365.175Z" fill="#0A0A0A"/>
<path d="M519.144 307.046L519.033 306.236L499.88 166.418L461.989 180.555L476.938 289.692L417.054 313.979L424.423 369.75L504.226 344.627C504.405 344.569 504.671 344.48 504.853 344.412C507.278 343.508 509.571 341.823 511.602 339.456C513.632 337.088 515.36 334.084 516.687 330.614C518.014 327.144 518.914 323.277 519.336 319.233C519.757 315.189 519.692 311.048 519.144 307.046Z" fill="#367CFF"/>
<path d="M416.76 314.085C416.744 313.96 416.759 313.829 416.8 313.721C416.841 313.613 416.906 313.535 416.981 313.505L476.599 289.337L466.905 218.674C466.895 218.609 466.892 218.542 466.897 218.476C466.902 218.41 466.916 218.346 466.936 218.288C466.957 218.231 466.985 218.181 467.018 218.142C467.05 218.103 467.088 218.075 467.127 218.06C467.167 218.045 467.207 218.044 467.247 218.056C467.287 218.068 467.325 218.093 467.359 218.13C467.392 218.167 467.421 218.215 467.443 218.271C467.466 218.327 467.481 218.39 467.488 218.456L477.246 289.592C477.264 289.718 477.251 289.852 477.21 289.962C477.169 290.073 477.103 290.153 477.026 290.184L417.405 314.351C417.405 314.351 417.804 317.228 417.917 318.198C417.926 318.325 417.904 318.452 417.856 318.551C417.808 318.651 417.738 318.715 417.662 318.73C417.585 318.744 417.508 318.708 417.448 318.629C417.387 318.55 417.348 318.435 417.339 318.309C417.202 317.244 416.76 314.085 416.76 314.085Z" fill="#0C0C0C"/>
<path d="M419.098 391.963L396.073 275.148C395.668 273.095 394.881 271.306 393.822 270.037C392.764 268.769 391.49 268.085 390.182 268.086H296.378C295.4 268.086 294.436 268.468 293.565 269.2C292.693 269.933 291.94 270.996 291.365 272.302C290.79 273.608 290.411 275.119 290.259 276.714C290.106 278.308 290.184 279.939 290.487 281.473L313.512 398.289C313.917 400.342 314.704 402.13 315.763 403.399C316.821 404.667 318.095 405.351 319.403 405.351H413.206C414.184 405.351 415.148 404.968 416.019 404.236C416.89 403.503 417.644 402.44 418.219 401.134C418.793 399.828 419.173 398.317 419.325 396.723C419.478 395.129 419.4 393.498 419.098 391.963Z" fill="#292A2E"/>
<path opacity="0.2" d="M419.098 391.963L396.073 275.148C395.668 273.095 394.881 271.306 393.822 270.037C392.764 268.769 391.49 268.085 390.182 268.086H296.378C295.4 268.086 294.436 268.468 293.565 269.2C292.693 269.933 291.94 270.996 291.365 272.302C290.79 273.608 290.411 275.119 290.259 276.714C290.106 278.308 290.184 279.939 290.487 281.473L313.512 398.289C313.917 400.342 314.704 402.13 315.763 403.399C316.821 404.667 318.095 405.351 319.403 405.351H413.206C414.184 405.351 415.148 404.968 416.019 404.236C416.89 403.503 417.644 402.44 418.219 401.134C418.793 399.828 419.173 398.317 419.325 396.723C419.478 395.129 419.4 393.498 419.098 391.963Z" fill="white"/>
<path d="M352.09 352.956C357.523 352.956 361.928 345.686 361.928 336.718C361.928 327.75 357.523 320.481 352.09 320.481C346.657 320.481 342.252 327.75 342.252 336.718C342.252 345.686 346.657 352.956 352.09 352.956Z" fill="white"/>
<path d="M259.476 12.3441H73.298C64.6728 12.3441 57.6807 23.8845 57.6807 38.1204V411.157C57.6807 425.393 64.6728 436.933 73.298 436.933H259.476C268.101 436.933 275.093 425.393 275.093 411.157V38.1204C275.093 23.8845 268.101 12.3441 259.476 12.3441Z" fill="#292A2E"/>
<path d="M266.358 0.98645H80.1799C71.5546 0.98645 64.5625 12.5269 64.5625 26.7627V399.799C64.5625 414.035 71.5546 425.575 80.1799 425.575H266.358C274.983 425.575 281.975 414.035 281.975 399.799V26.7627C281.975 12.5269 274.983 0.98645 266.358 0.98645Z" fill="white"/>
<path d="M266.358 426.562H80.1799C75.8807 426.554 71.759 423.732 68.7191 418.714C65.6792 413.697 63.9694 406.894 63.9648 399.798V26.7627C63.9696 19.6672 65.6795 12.8645 68.7194 7.84726C71.7592 2.82998 75.8808 0.00783284 80.1799 0L266.358 0C270.657 0.00809389 274.778 2.83036 277.818 7.84761C280.858 12.8649 282.567 19.6674 282.572 26.7627V399.798C282.568 406.894 280.858 413.696 277.818 418.714C274.778 423.731 270.657 426.554 266.358 426.562ZM80.1799 1.97285C76.1978 1.98016 72.38 4.59429 69.5642 9.2417C66.7484 13.8891 65.1646 20.1903 65.1602 26.7627V399.798C65.1646 406.37 66.7484 412.672 69.5642 417.319C72.38 421.966 76.1978 424.581 80.1799 424.588H266.358C270.34 424.581 274.157 421.966 276.973 417.319C279.789 412.672 281.373 406.37 281.377 399.798V26.7627C281.373 20.1904 279.789 13.8892 276.973 9.24176C274.157 4.59432 270.34 1.98016 266.358 1.97285H80.1799Z" fill="#292A2E"/>
<path d="M62.0545 478.953C83.4688 478.953 100.829 450.301 100.829 414.956C100.829 379.612 83.4688 350.96 62.0545 350.96C40.6401 350.96 23.2803 379.612 23.2803 414.956C23.2803 450.301 40.6401 478.953 62.0545 478.953Z" fill="#292A2E"/>
<path d="M54.0051 406.604C53.4947 406.604 53.0051 406.27 52.6441 405.674C52.2831 405.079 52.0802 404.271 52.0801 403.428V388.049C52.0801 379.545 56.5547 372.625 62.0544 372.625C67.554 372.625 72.0287 379.545 72.0287 388.049V402.373C72.0332 402.795 71.9867 403.214 71.892 403.606C71.7973 403.998 71.6562 404.354 71.4771 404.655C71.2979 404.956 71.0842 405.195 70.8484 405.359C70.6127 405.522 70.3596 405.606 70.1039 405.606C69.8483 405.606 69.5952 405.522 69.3594 405.359C69.1236 405.195 68.9099 404.956 68.7308 404.655C68.5516 404.354 68.4105 403.998 68.3158 403.606C68.2211 403.214 68.1747 402.795 68.1792 402.373V388.049C68.1792 383.048 65.4299 378.979 62.0544 378.979C58.6788 378.979 55.9296 383.048 55.9296 388.049V403.43C55.9293 404.272 55.7264 405.08 55.3655 405.675C55.0046 406.27 54.5153 406.604 54.0051 406.604Z" fill="white"/>
<path d="M74.3338 400.77H49.7749C48.3427 400.77 47.1816 402.686 47.1816 405.05V443.23C47.1816 445.594 48.3427 447.51 49.7749 447.51H74.3338C75.766 447.51 76.927 445.594 76.927 443.23V405.05C76.927 402.686 75.766 400.77 74.3338 400.77Z" fill="white"/>
<path d="M59.6094 420.36C59.6092 421.117 59.738 421.859 59.981 422.502C60.2241 423.144 60.5717 423.66 60.984 423.992V430.193C60.984 430.66 61.0965 431.108 61.2967 431.439C61.4969 431.769 61.7684 431.955 62.0515 431.955C62.3346 431.955 62.6061 431.769 62.8062 431.439C63.0064 431.108 63.1189 430.66 63.1189 430.193V423.992C63.5117 423.678 63.8463 423.195 64.0879 422.595C64.3295 421.995 64.4694 421.299 64.4929 420.579C64.5165 419.86 64.4228 419.143 64.2218 418.503C64.0207 417.863 63.7195 417.324 63.3496 416.942C62.9796 416.559 62.5543 416.347 62.1178 416.328C61.6814 416.308 61.2497 416.482 60.8677 416.831C60.4857 417.179 60.1673 417.691 59.9455 418.311C59.7237 418.932 59.6066 419.639 59.6064 420.36H59.6094Z" fill="#292A2E"/>
<path d="M250.099 212.844H96.4377C92.7695 212.844 89.7959 217.752 89.7959 223.806V259.361C89.7959 265.415 92.7695 270.323 96.4377 270.323H250.099C253.768 270.323 256.741 265.415 256.741 259.361V223.806C256.741 217.752 253.768 212.844 250.099 212.844Z" fill="white"/>
<path d="M250.099 271.308H96.4377C94.5183 271.305 92.6782 270.045 91.3211 267.805C89.9639 265.565 89.2005 262.528 89.1982 259.36V223.806C89.2005 220.638 89.9639 217.601 91.321 215.361C92.6782 213.121 94.5183 211.86 96.4377 211.856H250.099C252.018 211.86 253.859 213.12 255.216 215.36C256.573 217.601 257.337 220.638 257.339 223.806V259.36C257.337 262.528 256.573 265.565 255.216 267.805C253.858 270.045 252.018 271.305 250.099 271.308ZM96.4377 213.829C94.8351 213.832 93.2987 214.884 92.1656 216.755C91.0324 218.625 90.3951 221.161 90.3936 223.806V259.36C90.3953 262.005 91.0326 264.54 92.1658 266.41C93.2989 268.281 94.8352 269.333 96.4377 269.335H250.099C251.701 269.333 253.238 268.281 254.371 266.41C255.504 264.54 256.142 262.005 256.144 259.36V223.806C256.142 221.161 255.504 218.625 254.371 216.755C253.238 214.884 251.701 213.832 250.099 213.829H96.4377Z" fill="#292A2E"/>
<path d="M250.099 294.987H96.4377C92.7695 294.987 89.7959 299.895 89.7959 305.95V341.504C89.7959 347.559 92.7695 352.466 96.4377 352.466H250.099C253.768 352.466 256.741 347.559 256.741 341.504V305.95C256.741 299.895 253.768 294.987 250.099 294.987Z" fill="white"/>
<path d="M250.099 353.452H96.4377C94.518 353.448 92.6777 352.188 91.3204 349.947C89.9632 347.706 89.2 344.669 89.1982 341.5V305.95C89.2005 302.782 89.9639 299.745 91.3211 297.505C92.6782 295.265 94.5183 294.005 96.4377 294.001H250.099C252.018 294.004 253.858 295.264 255.216 297.504C256.573 299.744 257.337 302.782 257.339 305.95V341.5C257.337 344.669 256.574 347.707 255.216 349.947C253.859 352.188 252.019 353.448 250.099 353.452ZM96.4377 295.974C94.8352 295.977 93.2989 297.029 92.1658 298.899C91.0326 300.769 90.3953 303.305 90.3936 305.95V341.5C90.3953 344.145 91.0326 346.681 92.1658 348.551C93.2989 350.421 94.8352 351.473 96.4377 351.476H250.099C251.701 351.473 253.238 350.422 254.371 348.551C255.504 346.681 256.142 344.145 256.144 341.5V305.95C256.142 303.305 255.504 300.769 254.371 298.898C253.238 297.028 251.701 295.976 250.099 295.974H96.4377Z" fill="#292A2E"/>
<path d="M173.268 170.089C192.972 170.089 208.945 143.726 208.945 111.206C208.945 78.685 192.972 52.3219 173.268 52.3219C153.565 52.3219 137.592 78.685 137.592 111.206C137.592 143.726 153.565 170.089 173.268 170.089Z" fill="white"/>
<path d="M173.268 171.076C166.094 171.076 159.081 167.564 153.115 160.986C147.15 154.407 142.501 145.057 139.755 134.117C137.01 123.177 136.292 111.139 137.691 99.5255C139.091 87.9118 142.546 77.244 147.619 68.871C152.692 60.498 159.155 54.796 166.192 52.4859C173.228 50.1758 180.522 51.3614 187.15 55.8928C193.778 60.4242 199.443 68.0979 203.429 77.9435C207.415 87.7891 209.543 99.3644 209.543 111.206C209.532 127.079 205.707 142.297 198.906 153.52C192.106 164.744 182.886 171.058 173.268 171.076ZM173.268 53.3083C166.33 53.3083 159.548 56.7039 153.78 63.0658C148.011 69.4276 143.515 78.4699 140.86 89.0492C138.205 99.6286 137.51 111.27 138.863 122.501C140.217 133.732 143.558 144.048 148.464 152.145C153.37 160.242 159.62 165.756 166.425 167.99C173.229 170.224 180.283 169.078 186.692 164.696C193.102 160.314 198.581 152.893 202.435 143.372C206.29 133.85 208.347 122.657 208.347 111.206C208.337 95.8555 204.638 81.1392 198.061 70.2851C191.485 59.431 182.569 53.3256 173.268 53.3083Z" fill="#292A2E"/>
<path opacity="0.5" d="M208.153 111.206C208.163 124.835 205.233 138.025 199.887 148.413C196.594 142.077 192.511 136.992 187.916 133.507C183.321 130.021 178.323 128.217 173.266 128.219C168.209 128.22 163.212 130.027 158.618 133.515C154.024 137.004 149.941 142.091 146.65 148.428C143.02 141.357 140.478 132.944 139.24 123.905C138.001 114.865 138.104 105.465 139.537 96.5045C140.971 87.5438 143.694 79.2868 147.476 72.435C151.257 65.5832 155.984 60.3392 161.256 57.1484C166.528 53.9577 172.189 52.9146 177.758 54.1076C183.326 55.3007 188.638 58.6948 193.242 64.0014C197.845 69.3081 201.605 76.3705 204.201 84.5886C206.797 92.8067 208.152 101.938 208.153 111.206Z" fill="#367CFF"/>
<path d="M199.887 148.412C196.613 154.794 192.536 159.922 187.94 163.439C183.343 166.957 178.338 168.78 173.271 168.781C168.205 168.783 163.199 166.963 158.601 163.448C154.004 159.933 149.926 154.808 146.65 148.428C149.941 142.091 154.024 137.004 158.618 133.515C163.213 130.027 168.21 128.22 173.267 128.219C178.324 128.217 183.321 130.021 187.916 133.507C192.511 136.992 196.595 142.077 199.887 148.412Z" fill="white"/>
<path d="M173.269 117.476C181.057 117.476 187.37 107.057 187.37 94.2035C187.37 81.3503 181.057 70.9308 173.269 70.9308C165.482 70.9308 159.169 81.3503 159.169 94.2035C159.169 107.057 165.482 117.476 173.269 117.476Z" fill="white"/>
<g opacity="0.4">
<path d="M102.73 330.727C105.072 330.727 106.971 327.593 106.971 323.727C106.971 319.861 105.072 316.727 102.73 316.727C100.388 316.727 98.4893 319.861 98.4893 323.727C98.4893 327.593 100.388 330.727 102.73 330.727Z" fill="#292A2E"/>
<path d="M115.997 330.727C118.339 330.727 120.238 327.593 120.238 323.727C120.238 319.861 118.339 316.727 115.997 316.727C113.655 316.727 111.756 319.861 111.756 323.727C111.756 327.593 113.655 330.727 115.997 330.727Z" fill="#292A2E"/>
<path d="M129.262 330.727C131.605 330.727 133.503 327.593 133.503 323.727C133.503 319.861 131.605 316.727 129.262 316.727C126.92 316.727 125.021 319.861 125.021 323.727C125.021 327.593 126.92 330.727 129.262 330.727Z" fill="#292A2E"/>
<path d="M142.529 330.727C144.871 330.727 146.77 327.593 146.77 323.727C146.77 319.861 144.871 316.727 142.529 316.727C140.187 316.727 138.288 319.861 138.288 323.727C138.288 327.593 140.187 330.727 142.529 330.727Z" fill="#292A2E"/>
<path d="M155.795 330.727C158.137 330.727 160.036 327.593 160.036 323.727C160.036 319.861 158.137 316.727 155.795 316.727C153.452 316.727 151.554 319.861 151.554 323.727C151.554 327.593 153.452 330.727 155.795 330.727Z" fill="#292A2E"/>
<path d="M169.06 330.727C171.403 330.727 173.301 327.593 173.301 323.727C173.301 319.861 171.403 316.727 169.06 316.727C166.718 316.727 164.819 319.861 164.819 323.727C164.819 327.593 166.718 330.727 169.06 330.727Z" fill="#292A2E"/>
<path d="M182.327 330.727C184.669 330.727 186.568 327.593 186.568 323.727C186.568 319.861 184.669 316.727 182.327 316.727C179.985 316.727 178.086 319.861 178.086 323.727C178.086 327.593 179.985 330.727 182.327 330.727Z" fill="#292A2E"/>
</g>
<g opacity="0.3">
<path d="M106.937 241.161V243.529H101.49V241.161H106.937Z" fill="black"/>
<path d="M113.705 241.161V243.529H108.259V241.161H113.705Z" fill="black"/>
<path d="M120.473 241.161V243.529H115.026V241.161H120.473Z" fill="black"/>
<path d="M127.241 241.161V243.529H121.795V241.161H127.241Z" fill="black"/>
<path d="M134.01 241.161V243.529H128.562V241.161H134.01Z" fill="black"/>
<path d="M146.224 254.518C145.013 255.546 143.663 256.048 142.302 255.977C138.686 255.977 135.62 251.609 135.62 244.622C135.62 237.125 138.774 230.646 143.669 230.646C147.506 230.646 150.086 235.085 150.086 241.164C150.086 246.624 148.233 249.826 146.16 249.826C145.279 249.826 144.463 248.839 144.529 246.624H144.44C144.155 247.584 143.713 248.392 143.164 248.958C142.614 249.524 141.98 249.825 141.333 249.826C140.054 249.826 138.951 248.115 138.951 245.241C138.948 244.107 139.082 242.984 139.344 241.935C139.606 240.887 139.99 239.934 140.476 239.132C140.962 238.33 141.539 237.695 142.174 237.263C142.81 236.831 143.49 236.611 144.177 236.615C144.988 236.595 145.791 236.856 146.537 237.379L145.787 243.967C145.456 246.729 145.721 248.011 146.448 248.043C147.573 248.079 148.83 245.604 148.83 241.383C148.83 236.106 146.912 232.321 143.494 232.321C139.899 232.321 136.878 237.015 136.878 244.404C136.878 250.482 139.282 254.23 142.546 254.23C143.703 254.275 144.848 253.837 145.875 252.957L146.224 254.518ZM145.012 238.796C144.654 238.622 144.282 238.536 143.909 238.541C141.968 238.541 140.403 241.562 140.403 245.092C140.403 246.693 140.888 247.854 141.858 247.854C143.137 247.854 144.306 245.161 144.548 242.904L145.012 238.796Z" fill="black"/>
<path d="M157.027 241.161V243.529H151.58V241.161H157.027Z" fill="black"/>
<path d="M163.795 241.161V243.529H158.348V241.161H163.795Z" fill="black"/>
<path d="M170.563 241.161V243.529H165.116V241.161H170.563Z" fill="black"/>
</g>
</g>
<defs>
<clipPath id="clip0_66_684">
<rect width="532" height="850.356" fill="white"/>
</clipPath>
</defs>
</svg>
