<svg width="623" height="1491" viewBox="0 0 623 1491" fill="none" xmlns="http://www.w3.org/2000/svg">
<path d="M0 0H603C614.046 0 623 8.95431 623 20V1471C623 1482.05 614.046 1491 603 1491H0V0Z" fill="#BBC1CF"/>
<g clip-path="url(#clip0_78_969)">
<path fill-rule="evenodd" clip-rule="evenodd" d="M244.528 1002.82C162.102 1011.71 73.9951 906.261 73.9951 777.933C73.9951 649.598 204.642 704.291 247.023 602.437C348.566 358.563 553.566 750.999 481.498 794.799C337.095 882.498 442.25 981.501 244.528 1002.82Z" fill="#F0EFF4"/>
<path d="M469.748 772.773C469.792 773.115 469.904 773.435 469.949 773.777C470.313 776.984 470.546 779.165 470.305 781.967C469.728 787.957 467.083 793.761 468.612 801.348C470.26 812.099 478.58 818.637 480.819 807.979C482.102 800.939 479.918 792.371 477.474 784.594C476.113 780.426 474.546 776.434 472.788 772.656C474.712 772.455 476.606 771.785 478.401 770.669C478.78 770.433 479.089 770.218 479.468 769.979C479.575 770.064 479.751 770.127 479.858 770.213C483.158 767.999 485.864 765.852 489.22 764.45C494.992 761.822 502.303 759.188 502.849 749.413C502.907 746.312 501.111 743.196 499.233 740.934C496.695 738.24 493.596 737.208 490.588 738.055C485.403 739.077 481.825 743.987 479.886 750.046C478.693 753.856 478.142 758.178 477.768 762.563C477.685 764.723 477.363 767.077 477.702 769.342C475.501 770.74 473.066 771.262 470.48 771.356C470.354 771.302 470.222 771.302 470.096 771.356C469.171 771.392 468.246 771.324 467.327 771.152C467.116 764.458 468.84 758.229 470.351 751.83C470.844 749.305 471.513 746.843 471.685 744.062C473.012 744.701 474.385 745.07 475.771 745.161C478.331 745.43 480.508 743.09 479.532 739.245C477.788 734.096 471.741 731.594 468.462 730.6C465.669 729.925 462.834 729.813 460.024 730.264C459.637 730.284 459.252 730.364 458.876 730.503C460.523 727.974 462.101 725.467 463.642 722.853C465.018 720.645 466.318 718.224 467.656 715.91C472.032 717.393 476.016 721.25 480.069 725.085C484.991 730.073 490.136 735.467 495.177 732.947C499.416 730.559 499.193 722.091 494.371 716.953C489.48 711.838 483.615 709.633 478.425 709.115C476.317 708.899 474.201 708.964 472.1 709.307C471.892 709.372 471.646 709.33 471.368 709.417L474.984 703.31C477.029 699.945 479.112 696.688 481.157 693.323C481.403 693.365 481.717 693.386 482.033 693.406C483.37 693.702 483.932 693.763 485.306 694.164C488.73 695.351 492.204 697.114 495.622 698.065C498.897 698.925 502.229 699.122 505.536 698.651C507.939 698.257 510.48 697.822 512.468 696.254C516.063 693.355 516.414 686.724 511.288 682.037C506.81 678.374 501.738 676.938 496.735 677.916C495.417 678.326 493.846 678.458 492.679 679.296L491.696 677.823L491.835 677.781C494.674 675.354 497.809 673.547 501.013 671.717C505.221 669.457 509.712 667.346 514.266 664.978C516.164 666.64 517.809 668.025 519.763 670.5C525.008 677.048 528.749 687.621 533.847 695.282C537.345 700.595 546.51 709.952 550.919 708.697C560.015 706.1 542.719 685.521 538.603 680.638C533.875 675.116 528.788 670.534 523.644 666.445C521.94 665.065 520.179 663.871 518.373 662.87C524.41 659.685 530.371 656.286 535.898 652.311C536.894 651.644 537.853 650.871 538.743 650.12L538.85 650.205C539.524 650.588 540.306 651.056 541.019 651.545C542.154 652.14 544.48 654.142 544.946 654.59C554.018 663.028 559.687 677.744 569.547 685.58C573.695 689.031 578.929 691.195 582.241 688.146C587.712 680.751 575.597 666.976 570.025 661.242C564.748 656.127 559.029 652.812 553.336 650.434C550.484 649.177 547.572 648.3 544.628 647.812C543.71 647.626 542.784 647.558 541.859 647.607C548.697 641.936 555.089 635.009 560.902 626.97C561.186 627.117 561.501 627.139 561.785 627.288C563.415 628.015 565.015 628.903 566.576 629.945C570.599 632.604 573.65 635.565 577.292 639.767C581.799 644.885 586.33 650.943 591.703 653.064C593.569 653.549 595.713 653.948 596.969 652.49C598.048 650.968 598.289 648.165 597.174 645.667C595.637 641.759 592.901 638.814 590.31 636.066C587.95 633.564 585.483 631.321 582.928 629.355C579.829 626.88 576.577 624.913 573.225 623.485C570.546 622.287 567.824 621.353 565.072 620.69C566.075 618.954 567.079 617.219 568.045 615.376L568.114 615.354C572.284 611.683 577.179 608.972 579.963 603.125C581.087 600.64 582.066 597.963 581.941 594.564C581.987 589.687 577.537 585.383 574.34 584.837C570.998 584.098 568.733 587.059 567.924 590.868C567.07 595.64 567.843 601.091 567.627 606.139C567.578 608.516 567.383 610.881 567.043 613.198C567.012 613.31 566.997 613.432 567 613.554C567.003 613.677 567.024 613.796 567.062 613.904C565.894 616.046 564.725 618.189 563.42 620.374C562.462 621.96 561.451 623.463 560.391 624.876C560.972 621.73 560.772 618.116 559.594 614.572C558.864 612.072 557.067 610.26 555.296 609.39C551.298 607.671 550.193 612.166 551.824 616.993C553.045 620.881 555.724 625.621 555.621 628.382C555.641 629.138 555.626 629.896 555.576 630.649C555.531 630.776 555.505 630.918 555.503 631.063C555.501 631.209 555.521 631.353 555.563 631.483C552.729 635.004 549.753 638.229 546.654 641.137C547.779 637.348 548.613 633.174 547.858 628.43C547.185 624.133 544.406 619.545 541.127 619.855C538.055 620.102 535.992 622.76 534.32 625.652C530.93 631.096 530.364 640.165 529.069 646.735C528.487 649.881 527.515 652.792 526.505 655.597C526.411 655.983 526.037 656.454 526.088 657.032C518.165 661.635 510.045 665.469 501.764 669.71C498.213 671.647 494.699 673.69 491.481 676.353C492.883 673.782 494.214 671.232 495.508 668.576C497.159 668.891 498.654 668.544 499.602 667.3C500.649 665.907 500.19 663.086 498.848 661.251C499.536 659.495 500.293 657.717 500.944 655.854C504.563 659.115 508.049 661.348 510.799 659.543C513.128 657.631 511.345 652.376 508.899 649.819C507.868 648.704 506.778 647.734 505.64 646.921C506.842 645.486 508.119 644.216 509.457 643.125C515.413 638.186 522.509 635.385 527.62 628.926C530.195 625.752 533.079 622.363 533.781 617.164C534.009 615.196 534.086 612.801 532.983 610.773C528.792 604.371 523.095 608.518 519.872 610.946C517.099 613.122 514.728 616.393 512.987 620.443C511.27 624.297 510.165 628.793 508.844 633.117C508.284 634.901 507.664 636.638 506.988 638.32C507.152 637.913 507.279 637.399 507.443 636.992C508.662 632.818 509.667 628.473 510.671 624.129C510.81 624.085 510.841 623.957 510.98 623.914C511.036 623.854 511.083 623.775 511.117 623.682C511.151 623.589 511.171 623.485 511.176 623.379C511.157 623.141 511.103 622.914 511.019 622.716C511.05 622.588 511.081 622.459 511.151 622.437C511.247 622.47 511.347 622.449 511.434 622.378C511.521 622.308 511.591 622.192 511.631 622.051C513.438 614.966 519.088 602.415 514.684 593.234C514.089 592.381 513.317 591.904 512.515 591.894C510.415 591.837 509.323 594.193 508.647 596.419C507.118 602.113 507.014 608.786 508.07 615.69C508.344 617.628 508.686 619.541 509.096 621.418C509.247 621.845 509.259 622.316 509.48 622.721C508.792 623.172 508.142 623.731 507.455 624.182C506.786 620.808 506.308 617.345 506.028 613.837C505.627 609.219 505.189 601.885 501.734 598.218C501.204 597.743 500.579 597.606 499.987 597.835C499.395 598.064 498.881 598.642 498.549 599.45C497.097 602.748 497.782 607.515 498.84 611.81C499.775 615.543 501.021 619.063 502.543 622.277C503.177 623.659 503.89 624.945 504.673 626.119L504.711 626.226C503.652 627.149 502.593 628.072 501.638 629.08C498.029 632.814 494.968 637.443 491.939 641.944C491.636 642.395 491.365 642.716 491.062 643.167C490.653 642.227 490.312 641.266 489.972 640.304C488.868 637.161 487.917 633.89 487.126 630.519C485.755 624.899 483.828 615.539 479.226 610.807C477.751 609.251 476.124 609.876 475.499 611.375C474.482 613.945 475.528 617.77 476.346 620.953C477.819 626.423 480.163 631.74 482.778 636.736C484.322 639.575 485.828 642.307 487.542 644.974C487.939 645.444 488.273 646.17 488.702 646.511C486.682 649.511 484.593 652.534 482.504 655.556C480.635 649.617 479.444 644.296 477.953 638.121C476.511 632.523 475.025 626.585 471.855 621.76C469.278 618.176 466.395 618.955 465.649 622.508C464.265 628.394 466.009 636.151 468.352 642.77C469.885 646.806 471.722 650.534 473.821 653.872C475.075 655.905 476.399 657.828 477.785 659.633C478.145 659.995 478.472 660.486 478.831 660.848C477.853 662.221 476.844 663.721 475.866 665.093L472.931 669.209C472.862 669.23 472.792 669.252 472.83 669.357C472.761 669.378 472.799 669.485 472.799 669.485C472.054 670.429 471.278 671.501 470.533 672.443L470.464 672.465C467.964 663.876 464.972 655.204 460.429 647.371C458.337 643.635 455.999 639.858 453.131 637.194C449.941 634.275 445.048 631.768 444.604 637.48C444.438 643.105 447.127 648.314 450.393 652.751C448.213 650.941 445.873 649.772 443.665 649.63C442.354 649.524 441.067 650.216 440.069 651.563C439.07 652.911 438.435 654.812 438.294 656.877C438.089 665.005 443.339 673.092 447.062 680.351C449.085 684.108 450.944 688.272 450.93 691.715C450.898 692.795 450.785 693.865 450.594 694.903C450.501 695.288 450.297 695.588 450.448 696.015C450.49 696.156 450.551 696.28 450.626 696.379C450.702 696.479 450.79 696.551 450.885 696.591C450.713 696.854 450.556 697.141 450.417 697.448C449.042 698.351 447.887 699.659 447.704 701.97C447.72 702.215 447.703 702.463 447.653 702.697C447.575 702.947 447.475 703.178 447.356 703.383C446.715 704.779 446.123 706.231 445.582 707.73C445.849 701.955 446.256 696.136 444.726 689.854C442.316 679.34 435.496 668.777 433.489 658.968C432.476 653.711 432.787 649.582 432.518 644.686C432.871 644.813 433.18 644.598 433.237 644.106C433.414 642.865 433.56 641.753 433.775 640.618C434.433 636.381 434.977 633.129 435.811 628.956C436.272 626.559 436.803 624.141 437.334 621.723L437.404 621.701C438.38 621.396 439.369 621.207 440.363 621.135C442.242 620.786 446.758 620.921 448.908 621.555C453.373 622.417 458.965 626.248 462.189 622.516C464.593 619.513 462.572 613.149 459.408 609.865C455.695 605.686 451.059 603.691 447.194 604.303C444.337 604.719 442.192 606.929 440.185 609.095C439.829 609.463 439.465 609.813 439.095 610.147C439.506 607.173 439.848 604.221 440.31 601.824C441.556 594.676 443.552 588.126 445.333 581.405C445.686 581.532 445.995 581.317 446.311 581.337C447.149 581.313 447.988 581.288 448.795 581.393C451.232 581.695 453.648 582.331 456.016 583.294C458.878 584.417 461.791 586.119 464.673 586.646C468.753 587.509 472.783 586.49 475.099 582.804C477.239 579.054 474.467 573.396 471.069 570.542C467.595 567.474 463.749 566.183 460.211 565.981C455.027 565.699 451.999 568.896 450.085 574.591C449.561 575.94 448.28 577.762 447.239 578.086C446.869 578.301 446.487 578.46 446.097 578.56C446.42 577.512 446.634 576.377 446.919 575.222C448.518 568.201 448.855 561.1 451.595 554.91C453.053 551.847 456.164 547.795 457.705 543.876C458.462 542.099 459.22 540.321 459.87 538.458C464.664 537.202 470.724 538.87 476.047 537.805C478.027 537.306 479.996 536.337 481.056 534.107C483.209 529.522 481.187 524.462 476.679 521.953C471.882 519.061 467.938 522.068 464.833 525.051C463.837 526.112 462.94 527.39 462.17 528.847C462.425 527.377 462.737 525.933 463.105 524.524C463.869 521.677 464.803 519.963 466.394 517.926C468.165 516.022 469.829 513.877 471.366 511.517C472.542 510.477 473.68 509.331 474.773 508.084C476.199 506.454 477.625 504.824 478.402 502.448C479.507 499.257 480.039 494.23 477.146 490.625C475.551 488.514 473.155 487.838 471.641 488.784C468.013 491.811 467.587 500.837 468.599 507.399C468.844 508.747 469.09 510.093 469.335 511.439L469.373 511.545C468.698 512.467 468.023 513.389 467.31 514.204C466.045 515.501 464.877 517.018 463.826 518.728C463.764 515.072 464.643 511.241 464.468 507.264C464.339 501.019 461.391 493.994 457.117 489.752C451.778 484.894 447.538 488.587 448.682 496.175C449.16 499.702 450.546 503.183 451.894 506.558C453.494 510.209 455.201 513.946 457.319 517.317C458.378 519.004 459.537 520.539 460.735 522.182C461.094 522.669 461.48 523.104 461.887 523.483C461.149 525.966 460.769 528.811 460.244 531.465C459.407 535.416 458.17 539.125 456.581 542.448C455.173 546.088 452.094 550.013 450.238 553.911C449.882 554.667 449.575 555.478 449.322 556.331C449.25 556.096 449.149 555.886 449.026 555.712C448.228 550.625 448.236 545.642 447.86 540.66C447.272 531.594 444.923 522.129 437.919 516.485C434.773 513.908 430.681 512.574 428.592 515.597C426.238 519.177 426.62 525.698 428.756 531.078C431.76 538.916 437.036 545.335 442.281 550.578C444.399 552.646 446.315 553.709 447.701 555.885L447.776 556.099C447.877 556.784 448.012 557.456 448.179 558.108C448.23 558.235 448.298 558.341 448.379 558.419C448.461 558.497 448.552 558.543 448.646 558.555C447.276 563.607 446.693 569.361 445.563 574.22C443.863 581.39 441.734 588.221 440.035 595.389C439.839 594.62 439.594 593.273 439.399 592.504C438.614 588.657 437.973 584.739 437.481 580.771C436.092 570.532 434.148 557.856 426.105 551.233C415.583 543.484 407.121 552.88 413.956 568.061C417.705 576.261 423.63 582.122 429.531 587.042C432.507 589.79 435.748 591.982 437.789 595.14C438.129 595.828 438.418 596.573 438.652 597.362C438.803 597.789 438.777 598.151 439.03 598.43L439.352 598.685C439.232 599.434 439.042 600.205 438.922 600.953C437.936 606.003 437.416 611.503 436.644 616.722C436.458 618.011 436.21 619.278 435.905 620.509C435.835 620.531 435.874 620.638 435.843 620.766C435.653 621.537 435.533 622.286 435.344 623.056C431.967 616.992 430.122 609.387 426.833 602.705C423.601 596.834 418.579 590.692 413.677 590.559C406.475 590.668 411.375 605.387 415.345 611.383C418.591 616.419 422.745 620.105 427.007 622.571C427.498 625.264 428.129 627.914 428.795 630.671C428.315 629.753 427.767 628.856 427.288 627.938C425.933 625.633 422.689 619.292 420.695 620.625C418.821 622.513 421.877 628.32 423.75 630.345C425.524 632.446 427.52 634.031 429.644 635.029L429.713 635.007C430.217 637.406 430.575 639.875 430.782 642.382C430.939 644.361 431.027 646.352 431.044 648.347C430.899 648.155 430.717 647.854 430.572 647.665C429.878 646.576 429.254 645.466 428.631 644.356C427.2 641.837 425.909 639.278 424.106 637.229C420.746 633.177 417.8 635.518 420.074 640.856C421.826 644.935 425.129 646.871 427.96 648.122C428.528 648.418 429.946 649.163 430.602 650.143L430.64 650.25C430.785 650.442 430.86 650.656 431.005 650.848C431.161 655.424 431.6 660.149 433.439 664.912C436.916 674.737 442.556 684.363 443.788 693.94C444.567 700.93 443.491 707.906 443.721 715.304C443.806 723.816 445.057 732.793 445.318 741.368C445.424 742.758 445.531 744.148 445.669 745.411C443.798 742.08 441.825 738.901 439.751 735.871C435.465 729.857 431.11 723.86 427.064 717.65C427.085 717.057 427.164 716.473 427.298 715.918C427.674 713.766 428.244 711.711 428.991 709.817C430.86 705.084 435.207 700.172 436.011 693.519C437.289 684.94 430.443 678.653 425.384 681.771C420.96 685.165 420.989 694.168 421.428 701.502C421.658 704.51 422.04 707.483 422.571 710.395L422.023 709.498C419.168 704.696 416.447 699.616 413.623 694.685C413.61 694.214 413.315 693.595 413.195 693.039C412.796 691.928 412.461 690.763 412.194 689.557C411.218 685.711 410.387 679.447 410.428 675.641C410.343 667.129 413.639 660.767 412.274 651.469C411.602 645.868 407.443 638.033 403.544 641.383C402.314 642.477 401.737 644.554 401.227 646.374C400.4 649.479 400.108 653.007 400.168 656.663C400.295 661.974 401.001 667.21 402.255 672.14C403.023 675.27 403.922 678.317 404.944 681.26C399.87 674.541 394.33 668.679 389.3 662.301C389.333 662.169 389.346 662.026 389.336 661.884C389.326 661.742 389.294 661.607 389.243 661.489C389.144 660.807 389.079 660.113 389.049 659.415C388.961 657.427 389.14 653.576 389.752 651.607C392.014 644.499 394.59 637.412 394.322 628.602C394.157 618.337 392.304 601.128 383.257 594.935C377.066 590.936 374.255 598.451 374.228 605.337C373.775 617.336 377.962 630.26 381.4 642.588C382.792 647.609 383.843 651.669 384.945 656.306C383.643 654.389 382.41 652.358 381.252 650.223C378.051 644.225 375.796 638.287 373.1 631.539C370.769 625.388 368.161 619.323 365.83 613.171C365.377 611.89 364.955 610.48 364.501 609.198C364.546 609.127 364.581 609.041 364.603 608.947C364.625 608.852 364.633 608.751 364.627 608.651C364.621 608.551 364.601 608.454 364.568 608.367C364.536 608.281 364.492 608.206 364.439 608.15C361.143 602.537 359.115 597.24 356.16 591.283C351.655 582.252 346.412 573.095 339.775 566.745C336.831 563.868 333.634 563.323 332.548 567.218C331.898 570.386 333.05 574.295 334.158 577.863C335.33 581.174 336.608 584.568 338.297 587.601C341.051 592.553 344.416 596.841 347.915 600.849C351.954 605.363 356.236 609.305 360.712 612.632L365.1 615.889C365.209 615.976 365.33 616.019 365.453 616.017C366.958 620.053 368.71 624.132 370.284 628.147C369.83 628.014 369.382 627.837 368.941 627.617C366.772 626.76 364.666 625.549 362.655 624.003C355.411 618.553 348.655 610.342 340.723 606.649C339.203 606.057 337.62 605.719 336.453 606.557C335.796 607.089 335.284 607.984 335.017 609.073C334.749 610.162 334.743 611.369 335 612.464C336.038 617.358 339.328 621.432 342.417 624.501C349.597 631.513 357.907 636.275 365.418 635.95C367.935 635.877 370.407 635.462 372.508 634.215L372.577 634.193C374.864 640.003 377.219 645.79 380.125 651.17C382.626 655.845 385.638 660.005 388.746 663.78C389.224 664.409 389.718 665.007 390.227 665.571C386.627 664.322 383.281 662.045 379.503 659.427C375.619 656.724 371.742 654.256 367.732 652.067C362.946 649.645 357.688 646.541 353.241 647.689C350.535 648.532 349.979 652.619 351.9 656.526C353.645 660.371 356.552 663.14 359.174 665.761C363.606 669.897 368.417 672.918 373.435 674.717C378.486 676.582 383.512 677.505 388.292 677.083C391.572 676.773 394.953 676.312 397.848 674.698C397.917 674.677 397.879 674.57 397.879 674.57C401.781 679.283 405.613 684.018 408.896 689.163C410.907 692.45 412.848 695.758 414.719 699.088C409.769 698.633 404.861 697.381 400.071 695.352C393.292 692.958 384.881 688.346 380.319 694.392C377.505 697.759 378.624 704.406 382.344 708.82C385.918 713.042 390.262 714.653 394.229 715.196C400.377 716.244 405.474 713.233 409.922 709.477C411.84 707.931 414.269 705.87 415.928 705.115C416.396 704.851 416.887 704.698 417.385 704.662L417.801 704.532C419.049 706.75 420.404 709.057 421.721 711.255C422.231 712.044 422.672 712.856 423.145 713.539L423.221 713.752C423.296 713.966 423.403 714.051 423.617 714.222L425.697 717.486C425.689 717.608 425.699 717.732 425.726 717.846C425.753 717.961 425.797 718.065 425.853 718.149C426.01 718.35 426.193 718.496 426.389 718.575C429.742 723.696 433.265 728.646 436.857 733.574C439.931 737.774 442.82 742.302 445.504 747.124C445.649 747.316 445.762 747.637 445.945 747.935C445.975 748.212 445.971 748.496 445.932 748.77C445.493 756.021 446.253 763.609 447.051 771.307C444.129 774.589 438.996 773.579 435.022 775.41C432.259 776.746 430.038 780.045 430.194 784.623C430.293 789.691 432.819 795.307 436.4 798.46C441.31 802.977 446.036 799.133 446.897 793.291C447.694 789.012 447.891 784.563 448.12 779.985C448.85 785.094 449.547 790.332 449.854 795.334C450.343 800.637 449.854 806.006 449.935 811.673C450.028 812.592 449.877 813.469 450.11 814.346C450.482 815.179 451.422 815.004 451.327 814.085C451.102 810.835 451.369 806.365 451.408 802.558C451.361 798.805 451.193 795.058 450.903 791.332C450.432 785.431 449.363 779.361 448.609 773.312L448.685 772.221C448.695 772.162 448.697 772.101 448.689 772.041C448.681 771.982 448.665 771.926 448.641 771.879C449.264 771.684 449.259 771.449 449.676 771.319C451.99 770.242 454.4 770.086 456.96 770.354C456.867 770.739 456.947 771.188 456.815 771.466C456.732 772.322 456.606 772.835 456.549 773.327C455.967 776.473 455.026 779.257 454.123 782.147C452.443 787.413 450.548 793.814 453.358 800.881C458.051 813.055 467.057 811.078 465.133 799.109C464.221 792.397 460.674 785.202 459.327 779.218C458.874 776.632 458.761 775.007 459.153 772.632C459.219 772.013 459.345 771.414 459.527 770.857C461.778 771.342 463.998 771.954 466.318 772.417C467.455 772.652 468.601 772.771 469.748 772.773ZM429.099 626.546C428.822 625.328 428.615 624.088 428.376 622.977C428.943 623.273 429.58 623.55 430.109 623.741C431.421 624.4 432.304 624.717 433.349 625.933L433.387 626.039L433.494 626.125C433.784 626.509 433.973 627.043 434.294 627.298C434.263 627.427 434.301 627.534 434.232 627.555C433.332 631.799 432.57 636.112 431.95 640.48C431.919 640.608 431.956 640.715 431.887 640.737C431.485 636.119 430.238 631.29 429.099 626.546ZM454.741 738.2C455.504 737.962 458.412 738.123 459.118 738.378C459.797 738.537 460.469 738.763 461.13 739.055C460.111 741.736 459.518 744.769 459.404 747.893C458.669 746.738 457.83 745.761 456.914 744.993C455.23 743.386 453.376 742.276 451.442 741.718L451.404 741.611C451.972 740.605 452.54 739.597 453.145 738.697L453.215 738.675C453.707 738.404 454.221 738.244 454.741 738.2ZM475.425 698.908C474.927 694.164 474.065 689.535 472.858 685.122C472.071 682.204 471.191 679.352 470.219 676.577C470.046 676.061 469.846 675.568 469.621 675.104L470.738 673.688C473.38 675.709 475.718 678.184 478.353 681.276C479.796 682.961 481.353 684.966 483.011 686.82C480.531 690.915 477.944 694.922 475.426 698.909L475.425 698.908ZM501.061 631.157C503.026 628.969 505.105 627.052 507.276 625.425C507.724 625.168 508.064 624.824 508.512 624.566C507.722 627.777 506.97 631.094 506.074 634.219C505.177 637.344 504.174 640.385 503.168 643.425C503.112 643.485 503.066 643.564 503.032 643.657C502.998 643.75 502.978 643.853 502.973 643.96C502.91 644.217 502.809 644.367 502.745 644.624C500.499 643.565 498.181 642.934 495.84 642.744C494.719 642.619 493.665 642.473 492.58 642.456C495.414 638.49 498.177 634.546 501.061 631.158V631.157ZM490.359 645.76C492.918 647.334 496.127 650.958 499.461 654.07C498.773 655.825 498.153 657.56 497.429 659.209C496.199 658.141 494.868 657.395 493.488 656.998C490.141 655.968 486.715 655.756 483.328 656.37C485.651 652.916 488.074 649.315 490.359 645.76ZM478.911 662.608C479.159 662.28 479.395 661.929 479.618 661.557C480.078 661.77 480.601 661.725 481.062 661.938C482.827 662.573 484.668 663.422 486.44 664.293C488.389 665.227 491.087 666.758 493.59 667.52C492.296 670.176 490.895 672.746 489.494 675.318C487.729 673.378 485.736 672.101 483.75 671.06C481.941 670.067 480.071 669.379 478.17 669.005C476.94 668.795 475.749 668.692 474.557 668.589C476.077 666.572 477.529 664.577 478.911 662.605V662.608ZM454.645 688.074C455.826 685.098 457 681.886 457.645 678.484C458.287 680.299 458.93 682.115 459.679 684.016C457.453 686.504 455.317 689.189 453.281 692.057C453.735 690.728 454.19 689.399 454.644 688.072L454.645 688.074ZM452.609 695.82C455.058 692.15 457.668 688.761 460.421 685.678C462.684 690.988 465.262 695.942 468.122 700.473C469.105 701.945 470.195 703.503 471.21 704.847C471.333 705.023 471.466 705.18 471.607 705.316C469.966 708.08 468.363 710.951 466.76 713.822C466.69 713.786 466.614 713.778 466.541 713.801C466.468 713.824 466.4 713.876 466.344 713.952C466.294 713.988 466.249 714.041 466.214 714.107C466.178 714.173 466.152 714.251 466.138 714.334C466.123 714.418 466.121 714.506 466.13 714.592C466.139 714.677 466.161 714.758 466.192 714.83C465.289 716.415 464.456 717.979 463.516 719.458C462.837 714.926 462.297 710.352 460.918 705.802C459.192 700.054 456.337 695.252 452.609 695.82ZM446.667 741.071C446.306 731.342 444.903 721.937 445.047 712.762C445.066 712.163 445.047 711.457 445.067 710.859C445.805 710.985 445.9 709.295 446.266 708.588C446.689 707.389 447.15 706.297 447.611 705.204C448.246 708.089 449.551 711.12 450.981 713.64C452.96 717.055 455.765 718.669 458.268 720.737C458.748 721.171 459.205 721.663 459.636 722.208C459.674 722.315 459.819 722.507 459.857 722.614C459.964 722.699 460.153 723.233 460.26 723.318C460.402 723.611 460.517 723.935 460.6 724.279C458.05 728.394 455.286 732.338 452.667 736.475C452.899 733.442 452.9 730.376 452.671 727.343C452.477 725.269 452.169 722.875 451.066 720.847C450.26 719.438 448.746 719.08 448.109 720.108C447.433 721.029 447.439 722.569 447.407 724.002C447.513 726.697 448.042 729.497 448.671 732.146C449.201 734.372 449.624 736.658 449.935 738.986C450.021 739.554 450.071 740.134 450.086 740.717C449.051 742.581 448.054 744.552 447.095 746.63C446.975 744.77 446.787 742.93 446.668 741.071H446.667ZM449.549 769.462C449.078 769.627 448.616 769.85 448.167 770.129L448.098 770.151C447.583 765.213 447.157 759.654 446.982 755.677C446.931 754.887 446.933 754.091 446.989 753.303C447.027 753.403 447.079 753.489 447.142 753.551C447.204 753.614 447.275 753.653 447.349 753.665C447.916 753.961 448.32 753.362 448.018 752.508C447.898 751.952 447.848 751.374 447.728 750.82C448.006 750.733 448.208 750.433 448.126 749.984C448.195 749.963 448.195 749.963 448.303 750.048C448.995 750.108 449.68 750.292 450.346 750.597C451.657 751.255 454.015 753.13 455.856 753.979C457.098 754.659 458.504 754.932 459.507 754.501C459.601 755.853 459.765 757.19 459.998 758.498C460.692 762.514 461.847 766.295 463.404 769.651C463.48 769.864 463.625 770.056 463.7 770.269C459.192 769.066 453.63 767.716 449.549 769.462H449.549Z" fill="#DAD8E4"/>
<path fill-rule="evenodd" clip-rule="evenodd" d="M174.436 640.023C146.018 650.645 103.334 689.25 93.5003 617.757C86.7635 568.772 166.765 572.955 183.381 545.814C219.931 486.109 276.19 540.124 252.133 559.317C203.93 597.757 242.604 614.537 174.436 640.023Z" fill="#F0EFF4"/>
<path fill-rule="evenodd" clip-rule="evenodd" d="M391.468 719.858C380.752 745.268 272.835 759.202 258.808 727.978C237.128 679.762 299.566 541.969 299.566 541.969C298.76 535.383 298.61 519.462 301.888 513.249C306.854 503.806 299.467 494.837 304.063 492.8C309.969 490.192 314.701 499.022 324.99 503.437C331.086 506.027 330.235 531.351 324.472 545.525C322.421 550.553 318.502 551.013 318.502 551.013C318.502 551.013 294.417 644.812 299.532 662.776C305.877 684.997 336.083 659.413 382.496 649.044C404.692 644.079 397.373 705.851 391.468 719.858Z" fill="#FFC197"/>
<path fill-rule="evenodd" clip-rule="evenodd" d="M331.764 651.208C335.826 656.138 336.786 667.814 337.475 675.118C338.206 682.838 337.983 690.762 336.353 698.204C333.903 709.405 328.819 718.564 326.73 729.969C325.178 738.454 325.549 748.016 327.367 756.344C328.214 760.238 329.497 763.86 331.153 767.036C340.97 785.764 361.187 778.773 373.584 772.189C387.536 764.777 401.317 750.657 408.517 729.717C419.685 697.252 409.554 657.203 390.313 639.199C382.681 632.142 374.086 628.103 365.258 627.424C354.772 626.552 344.007 629.701 334.947 638.286L331.764 651.208Z" fill="#FE9400"/>
<path fill-rule="evenodd" clip-rule="evenodd" d="M290.945 548.028C283.974 568.847 274.982 614.369 270.291 636.587C264.305 665.113 261.921 686.736 271.12 712.28C282.005 742.585 318.338 730.741 336.115 722.956C340.038 721.233 343.912 719.241 347.725 716.984C353.104 713.871 358.328 710.122 363.352 705.771C373.718 696.601 382.373 684 390.122 669.87C392.351 665.818 394.346 661.391 396.705 657.537C397.404 656.385 398.467 654.687 399.607 654.896C401.525 655.245 401.965 660.843 402.224 663.021C403.209 672.043 403.131 681.47 402.742 690.57C401.213 726.541 393.827 762.474 373.51 782.121C360.967 794.257 345.34 798.03 331.035 801.353C316.756 804.666 301.725 807.663 287.265 805.577C261.453 801.853 234.216 784.102 220.093 747.873C203.767 705.906 211.283 649.819 224.681 608.538C228.024 598.247 231.885 588.35 236.472 579.331C245.412 561.756 257.386 545.758 271.509 540.392L290.945 548.028Z" fill="black" fill-opacity="0.1"/>
<path fill-rule="evenodd" clip-rule="evenodd" d="M160.031 497.879C158.759 494.711 156.342 492.437 153.57 491.796C150.839 491.101 148.044 492.097 145.764 494.577L28.1127 628.609C25.0628 632.083 24.223 637.726 26.0745 642.339L174.137 1011.2C175.427 1014.42 177.824 1016.64 180.616 1017.33C183.347 1018.03 186.142 1017.03 188.422 1014.55L306.072 880.519C309.122 877.044 309.962 871.401 308.11 866.788L160.031 497.879ZM158.263 499.013L306.343 867.925C307.784 871.513 307.134 875.92 304.735 878.654L187.084 1012.69C185.298 1014.62 183.115 1015.41 180.975 1014.89C178.785 1014.4 176.915 1012.59 175.905 1010.08L27.8429 641.207C26.3839 637.573 27.033 633.166 29.4316 630.432L147.082 496.4C148.868 494.467 151.051 493.679 153.19 494.195C155.402 494.733 157.253 496.495 158.263 499.01V499.013Z" fill="#77536F"/>
<path fill-rule="evenodd" clip-rule="evenodd" d="M182.799 494.513C182.584 493.969 182.299 493.502 181.963 493.142C181.627 492.782 181.248 492.537 180.849 492.423C180.456 492.305 180.054 492.312 179.663 492.443C179.273 492.574 178.903 492.826 178.575 493.186L53.1852 636.033C52.5713 636.738 52.1512 637.789 52.0111 638.969C51.871 640.149 52.0215 641.37 52.4317 642.38L199.045 1007.64C199.258 1008.17 199.539 1008.63 199.872 1008.99C200.205 1009.34 200.582 1009.58 200.976 1009.68C201.368 1009.81 201.773 1009.81 202.165 1009.68C202.557 1009.55 202.927 1009.29 203.252 1008.92L328.64 866.072C329.255 865.379 329.678 864.338 329.822 863.165C329.965 861.993 329.818 860.777 329.411 859.771L182.799 494.513Z" fill="#A9A5C6"/>
<path fill-rule="evenodd" clip-rule="evenodd" d="M277.889 781.739C275.802 776.541 271.922 772.852 267.372 771.794C262.823 770.736 258.153 772.397 254.715 776.313L189.203 850.946C180.855 860.456 178.605 875.805 183.68 888.448C185.767 893.645 189.645 897.329 194.194 898.387C198.743 899.444 203.413 897.785 206.835 893.887L272.363 819.234C280.694 809.744 282.963 794.381 277.889 781.739ZM276.476 782.63L276.478 782.635C281.229 794.472 279.104 808.859 271.301 817.749L205.773 892.401C202.72 895.881 198.54 897.372 194.478 896.426C190.433 895.461 186.953 892.192 185.09 887.552C180.339 875.716 182.464 861.329 190.267 852.439L255.796 777.785C258.848 774.306 263.028 772.814 267.072 773.774C271.133 774.721 274.613 777.99 276.476 782.63H276.476Z" fill="white"/>
<path fill-rule="evenodd" clip-rule="evenodd" d="M330.588 748.609C329.271 745.329 327.544 742.51 325.514 740.324C323.483 738.137 321.192 736.631 318.78 735.896C316.369 735.161 313.888 735.213 311.49 736.05C309.091 736.887 306.826 738.49 304.834 740.761L220.998 836.268C216.764 841.089 213.856 848.29 212.869 856.396C211.882 864.502 212.892 872.898 215.691 879.864C217.008 883.145 218.734 885.967 220.765 888.154C222.795 890.341 225.087 891.849 227.499 892.584C229.911 893.319 232.392 893.266 234.79 892.429C237.189 891.591 239.454 889.987 241.447 887.714L325.282 792.205C329.512 787.381 332.418 780.181 333.405 772.079C334.392 763.976 333.385 755.582 330.591 748.615L330.588 748.609Z" fill="#77536F"/>
<path fill-rule="evenodd" clip-rule="evenodd" d="M233.695 675.195C233.163 673.87 232.466 672.731 231.645 671.847C230.825 670.964 229.899 670.356 228.924 670.06C227.95 669.764 226.948 669.786 225.979 670.125C225.01 670.464 224.096 671.113 223.291 672.033L141.33 765.407C139.63 767.341 138.462 770.231 138.065 773.484C137.668 776.738 138.072 780.109 139.195 782.905C139.726 784.228 140.423 785.365 141.241 786.248C142.06 787.13 142.984 787.738 143.956 788.036C144.929 788.333 145.929 788.314 146.897 787.978C147.864 787.642 148.778 786.998 149.582 786.084L231.561 692.693C233.261 690.76 234.429 687.871 234.826 684.617C235.223 681.364 234.819 677.994 233.696 675.198L233.695 675.195ZM251.135 718.631C250.603 717.306 249.905 716.166 249.085 715.283C248.264 714.4 247.339 713.792 246.364 713.496C245.39 713.199 244.388 713.221 243.419 713.561C242.45 713.9 241.535 714.549 240.731 715.468L158.769 808.844C157.069 810.778 155.901 813.668 155.504 816.922C155.107 820.175 155.512 823.546 156.635 826.343C157.166 827.665 157.862 828.803 158.681 829.685C159.499 830.567 160.423 831.175 161.396 831.473C162.368 831.771 163.368 831.751 164.336 831.415C165.303 831.08 166.217 830.435 167.022 829.521L248.999 736.129C250.699 734.196 251.868 731.307 252.265 728.053C252.662 724.8 252.258 721.43 251.135 718.633V718.631Z" fill="white"/>
<path d="M242.894 852.608L245.184 849.618C245.399 849.961 245.659 850.225 245.945 850.39C246.232 850.556 246.538 850.62 246.842 850.577C247.587 850.394 248.287 849.902 248.874 849.153C249.518 848.502 250.055 847.619 250.443 846.577C250.688 845.763 250.716 845.095 250.52 844.605C250.457 844.448 250.371 844.318 250.27 844.225C250.168 844.133 250.054 844.081 249.937 844.073C249.549 844.089 249.168 844.238 248.819 844.508C248.498 844.721 247.762 845.279 246.617 846.151C245.16 847.303 244.06 847.92 243.311 847.986C242.269 848.104 241.544 847.633 241.117 846.568C240.836 845.81 240.747 844.912 240.866 844.054C241.027 842.913 241.361 841.851 241.84 840.961C242.483 839.748 243.227 838.678 244.051 837.78C245.584 836.033 246.884 835.087 247.951 834.94C249.018 834.792 249.81 835.339 250.339 836.517L247.943 839.426C247.778 839.161 247.577 838.959 247.355 838.837C247.133 838.715 246.896 838.676 246.663 838.722C246.025 838.939 245.429 839.391 244.923 840.043C244.326 840.66 243.822 841.477 243.447 842.437C243.358 842.615 243.305 842.83 243.294 843.056C243.283 843.281 243.315 843.507 243.384 843.705C243.464 843.87 243.572 843.995 243.696 844.066C243.819 844.137 243.953 844.151 244.081 844.106C244.51 844.025 245.383 843.487 246.693 842.43C247.673 841.61 248.694 840.923 249.746 840.376C250.357 840.068 251.007 840.01 251.635 840.207C252.195 840.433 252.676 841.002 252.971 841.788C253.291 842.639 253.393 843.65 253.257 844.616C253.099 845.862 252.737 847.021 252.206 847.975C251.496 849.307 250.675 850.481 249.767 851.466C248.222 853.227 246.889 854.185 245.751 854.338C245.222 854.434 244.686 854.327 244.189 854.026C243.692 853.725 243.247 853.238 242.894 852.608ZM252.164 832.331L251.212 829.958L253.543 827.302L254.495 829.676L252.164 832.331ZM256.592 843.361L252.689 833.642L255.02 830.987L258.922 840.707L256.592 843.361ZM261.354 838.852L264.161 836.189C264.229 836.327 264.319 836.432 264.422 836.494C264.525 836.556 264.637 836.572 264.745 836.541C265.173 836.379 265.571 836.065 265.909 835.622C266.389 835.12 266.811 834.493 267.158 833.767C267.302 833.423 267.371 833.014 267.355 832.602C267.299 832.125 267.175 831.675 266.992 831.285L266.425 829.872C266.139 831.737 265.425 833.367 264.421 834.444C263.23 835.8 262.068 836.31 260.943 835.99C260.502 835.87 260.083 835.6 259.714 835.198C259.346 834.797 259.037 834.274 258.809 833.665C258.494 832.954 258.292 832.133 258.22 831.273C258.148 830.412 258.207 829.537 258.394 828.72C258.794 826.961 259.541 825.451 260.523 824.413C261.464 823.237 262.661 822.697 263.852 822.909L263.306 821.548L265.486 819.066L268.989 827.792C269.369 828.649 269.633 829.62 269.765 830.646C269.82 831.382 269.757 832.128 269.582 832.815C269.346 833.613 269.028 834.345 268.642 834.98C268.083 835.919 267.462 836.761 266.791 837.494C265.296 839.198 264.12 840.131 263.268 840.262C262.423 840.41 261.819 840.056 261.468 839.183C261.425 839.078 261.386 838.967 261.354 838.852ZM261.148 830.795C261.561 831.825 262.039 832.373 262.603 832.443C263.19 832.486 263.768 832.198 264.233 831.629C264.768 831.053 265.171 830.219 265.383 829.251C265.477 828.773 265.499 828.267 265.449 827.773C265.398 827.279 265.275 826.811 265.09 826.405C264.685 825.393 264.193 824.859 263.629 824.789C263.005 824.759 262.394 825.076 261.903 825.687C261.389 826.238 261.005 827.043 260.81 827.976C260.73 828.456 260.719 828.958 260.777 829.446C260.835 829.934 260.962 830.395 261.148 830.795ZM279.711 817.022L277.38 819.678L275.391 814.722C274.971 813.674 274.647 813.052 274.419 812.853C274.181 812.668 273.911 812.609 273.65 812.686C273.317 812.795 273.004 813.021 272.735 813.348C272.351 813.771 272.03 814.319 271.792 814.955C271.585 815.469 271.492 816.077 271.526 816.683C271.667 817.559 271.911 818.385 272.245 819.119L274.01 823.517L271.679 826.173L267.778 816.452L269.944 813.984L270.518 815.413C270.869 813.394 271.665 811.64 272.761 810.468C273.234 809.92 273.752 809.477 274.299 809.148C274.707 808.905 275.142 808.799 275.577 808.837C275.9 808.896 276.207 809.09 276.467 809.399C276.794 809.851 277.071 810.386 277.287 810.982L279.711 817.022ZM281.413 795.552L283.87 792.752L286.784 800.012C287.067 800.773 287.397 801.487 287.77 802.145C287.953 802.358 288.163 802.509 288.385 802.589C288.608 802.668 288.838 802.674 289.062 802.605C290.371 802.055 291.509 800.768 292.261 798.986C292.477 798.419 292.543 797.741 292.446 797.098C292.234 796.257 291.962 795.457 291.636 794.714L288.659 787.297L291.116 784.497L293.939 791.53C294.584 793.135 294.983 794.359 295.11 795.181C295.249 796.003 295.232 796.872 295.06 797.679C294.832 798.681 294.492 799.611 294.057 800.424C293.417 801.583 292.688 802.61 291.887 803.481C290.722 804.808 289.792 805.665 289.057 806.044C288.462 806.417 287.823 806.581 287.183 806.526C286.717 806.49 286.266 806.245 285.884 805.819C285.252 804.911 284.71 803.856 284.277 802.69L281.413 795.552ZM295.103 785.322L297.283 782.839L297.858 784.269C297.962 783.374 298.188 782.525 298.522 781.783C298.9 780.893 299.379 780.123 299.936 779.511C300.831 778.404 301.942 777.822 303.078 777.864C304.15 777.914 305.002 778.752 305.632 780.32C305.945 781.045 306.149 781.875 306.225 782.745C306.302 783.615 306.251 784.501 306.075 785.334C305.696 787.097 304.965 788.617 303.992 789.665C303.554 790.179 303.067 790.579 302.549 790.852C301.998 791.105 301.426 791.216 300.853 791.181L302.822 796.085L300.491 798.741L295.103 785.322ZM299.293 787.39C299.734 788.489 300.259 789.061 300.862 789.137C301.49 789.2 302.111 788.899 302.609 788.291C303.116 787.747 303.491 786.943 303.67 786.014C303.836 785.139 303.698 784.152 303.265 783.07C302.852 782.04 302.373 781.492 301.801 781.404C301.197 781.36 300.604 781.657 300.126 782.242C299.595 782.804 299.199 783.631 299.001 784.591C298.912 785.062 298.891 785.559 298.942 786.044C298.993 786.529 299.113 786.989 299.293 787.39Z" fill="white"/>
<path d="M175.675 688.465C191.338 665.185 194.149 629.65 181.953 609.096C169.757 588.541 147.172 590.749 131.509 614.029C115.845 637.308 113.034 672.843 125.23 693.398C137.427 713.953 160.011 711.744 175.675 688.465Z" fill="white"/>
<path fill-rule="evenodd" clip-rule="evenodd" d="M150.156 676.734C145.611 676.625 141.514 673.469 139.105 667.468C134.739 656.591 137.59 640.457 145.486 631.462C153.382 622.466 163.366 623.986 167.731 634.863C170.555 641.899 170.324 651.149 167.717 659.217C178.421 653.517 188 656.342 190.415 666.866C193.241 679.224 185.103 697.559 172.267 707.772C159.431 717.985 146.675 716.263 143.849 703.904C142.086 696.049 144.699 685.795 150.156 676.734Z" fill="#D1CFE1"/>
<path fill-rule="evenodd" clip-rule="evenodd" d="M381.761 926.886C384.508 844.857 366.29 773.465 367.948 726.57C369.011 696.822 360.873 652.67 391.764 645.517C418.249 639.385 450.98 650.463 457.433 661.742C470.494 684.497 465.751 807.878 453.338 824.706C428.46 849.844 401.197 901.769 381.761 926.886Z" fill="#FE9400"/>
<path fill-rule="evenodd" clip-rule="evenodd" d="M435.324 706.817C433.173 711.361 431.955 716.985 430.944 722.366C428.275 736.241 428.172 750.088 429.389 764.365C430.581 778.465 432.94 793.071 431.333 807.332C430.115 817.882 426.539 826.605 423.04 835.563C414.256 858.093 409.072 865.491 397.177 882.197C390.413 891.662 377.222 930.573 379.218 945.716C380.592 956.277 391.139 946.023 395.104 942.796C405.859 934.023 415.474 921.689 425.969 912.055C440.948 898.27 457.793 886.363 469.014 864.667C483.915 835.826 485.703 792.218 479.976 757.253C477.255 740.609 472.461 723.19 463.002 713.642L435.324 706.817Z" fill="black" fill-opacity="0.1"/>
<path fill-rule="evenodd" clip-rule="evenodd" d="M454.372 663.228C472.177 675.124 508.435 837.032 487.593 867.196C466.751 897.359 329.345 844.222 329.345 844.222C325.408 846.71 315.581 849.932 311.085 845.999C304.318 840.056 308.482 826.786 306.355 820.028C303.629 811.337 284.151 830.892 284.936 814.059C285.425 804.103 317.002 798.533 326.88 804.84C330.412 807.087 331.431 813.096 331.431 813.096C331.431 813.096 429.298 827.443 439.488 816.116C452.088 802.084 420.504 751.495 425.419 694.31C428.444 659.16 444.595 656.683 454.372 663.228Z" fill="#FFC197"/>
<path fill-rule="evenodd" clip-rule="evenodd" d="M426.26 768.183C428.558 760.943 435.624 757.261 440.028 754.82C444.682 752.235 449.642 751.094 454.566 752.23C461.977 753.938 468.616 760.123 476.085 761.232C481.642 762.052 487.507 759.682 492.335 755.293C494.593 753.246 496.6 750.573 498.261 747.402C508.042 728.627 499.912 698.511 493.499 680.472C486.282 660.174 474.933 641.399 460.587 634.135C438.342 622.863 415.388 646.126 407.824 679.415C404.875 692.603 403.981 706.722 405.216 720.573C406.642 737.037 410.615 753.183 417.645 765.657L426.26 768.183Z" fill="#FE9400"/>
<path fill-rule="evenodd" clip-rule="evenodd" d="M395.971 644.408C395.971 644.408 406.415 632.182 403.979 619.311C403.356 615.932 398.641 625.455 394.391 621.333C388.586 615.663 387.186 582.988 393.743 565.987C397.811 555.451 412.116 549.13 416.781 556.308C421.446 563.485 423.286 594.079 421.679 609.059C419.139 632.955 432.9 647.33 432.9 647.33C432.9 647.33 410.043 676.282 404.29 700.313C402.606 707.37 395.971 644.408 395.971 644.408Z" fill="#FFC197"/>
<path fill-rule="evenodd" clip-rule="evenodd" d="M401.254 621.07C402.083 620.361 402.757 618.913 403.379 617.83C404.808 615.406 406.124 612.823 407.318 610.099C407.759 609.014 408.199 607.909 408.692 606.838C408.795 606.567 409.081 605.78 409.34 605.78C409.599 605.78 409.443 607.134 409.418 607.308C409.244 609.202 408.967 611.068 408.588 612.886C407.163 620.326 404.235 625.896 401.099 631.683L401.254 621.07Z" fill="black" fill-opacity="0.1"/>
<path fill-rule="evenodd" clip-rule="evenodd" d="M396.93 579.793C394.986 579.609 393.172 577.812 391.669 575.975C385.89 568.929 386.28 556.669 391.306 548.942C394.338 544.303 400.558 541.207 403.46 547.736C404.393 545.645 406.337 544.758 407.814 544.213C409.013 543.709 410.258 543.537 411.494 543.704C419.942 545.505 417.973 562.309 424.399 567.682C426.499 565.545 428.805 572.529 429.22 574.658C430.645 582.062 430.023 594.714 424.633 597.667C424.165 599.657 422.974 601.055 421.912 602.203C418.984 605.39 414.267 607.67 411.002 604.377C410.609 603.975 410.251 603.492 409.939 602.942C407.607 598.836 410.069 594.156 410.846 589.891C411.261 587.643 411.598 584.829 410.354 583.062C409.343 581.676 408.332 582.463 407.529 583.801C406.311 585.84 405.637 589.051 403.693 589.626C400.895 590.446 398.174 586.188 397.292 583.202C397.111 582.57 396.93 579.793 396.93 579.793Z" fill="black"/>
<path fill-rule="evenodd" clip-rule="evenodd" d="M379.061 547.201C379.062 545.759 378.808 544.345 378.327 543.121C377.845 541.897 377.157 540.911 376.339 540.275L272.251 459.258C271.507 458.683 270.683 458.417 269.856 458.484C269.03 458.551 268.227 458.95 267.524 459.642C266.821 460.335 266.241 461.298 265.838 462.443C265.435 463.587 265.222 464.875 265.22 466.185V493.448C265.222 494.889 265.478 496.3 265.958 497.524C266.439 498.747 267.126 499.734 267.942 500.374L372.05 581.406C372.793 581.984 373.618 582.251 374.445 582.184C375.272 582.116 376.074 581.716 376.776 581.02C377.478 580.325 378.056 579.357 378.456 578.209C378.856 577.062 379.064 575.771 379.061 574.461L379.061 547.201Z" fill="#77536F"/>
<path fill-rule="evenodd" clip-rule="evenodd" d="M279.903 499.629L277.688 495.662L280.57 491.028L275.476 484.927L276.157 481.492L281.251 487.592L280.982 479.182L283.617 481.023L283.886 489.433L288.814 490.336L289.752 494.902L284.824 493.999L288.142 502.966L286.086 503.948L282.784 494.989L279.903 499.629ZM298.238 513.882L296.023 509.916L298.904 505.281L293.81 499.182L294.491 495.747L299.586 501.846L299.316 493.436L301.951 495.277L302.22 503.687L307.149 504.59L308.086 509.156L303.158 508.253L306.476 517.22L304.42 518.202L301.118 509.244L298.238 513.882ZM317.883 527.749L315.668 523.783L318.55 519.149L313.455 513.05L314.136 509.614L319.231 515.714L318.961 507.304L321.596 509.145L321.865 517.555L326.794 518.458L327.731 523.024L322.803 522.121L326.121 531.088L324.065 532.07L320.763 523.112L317.883 527.749ZM337.065 544.106L334.851 540.139L337.732 535.505L332.638 529.405L333.319 525.97L338.414 532.069L338.144 523.66L340.779 525.501L341.048 533.91L345.976 534.813L346.914 539.379L341.986 538.476L345.304 547.443L343.248 548.426L339.946 539.467L337.065 544.106ZM357.308 559.861L355.093 555.895L357.975 551.261L352.881 545.162L353.562 541.726L358.656 547.826L358.387 539.416L361.022 541.257L361.291 549.667L366.219 550.57L367.157 555.136L362.229 554.233L365.547 563.2L363.491 564.182L360.189 555.224L357.308 559.861Z" fill="white"/>
<path fill-rule="evenodd" clip-rule="evenodd" d="M313.621 546.783C315.241 543.875 324.968 536.867 327.521 536.305C331.592 535.358 335.424 539.579 334.014 545.707C333.453 548.064 321.133 553.481 317.744 553.673C316.357 553.743 312.975 547.936 313.621 546.783Z" fill="#FFC197"/>
</g>
<defs>
<clipPath id="clip0_78_969">
<rect width="623" height="986" fill="white" transform="translate(0 245)"/>
</clipPath>
</defs>
</svg>
